{
  "accessors": [
    {
      "bufferView": 2,
      "componentType": 5126,
      "count": 9159,
      "max": [
        0.20479385554790497,
        0.2737552523612976,
        0.581965446472168
      ],
      "min": [
        -0.17575138807296753,
        -0.25634899735450745,
        -0.6033462882041931
      ],
      "type": "VEC3"
    },
    {
      "bufferView": 2,
      "byteOffset": 109908,
      "componentType": 5126,
      "count": 9159,
      "max": [
        0.9999988675117493,
        0.9999974370002747,
        0.9999874830245972
      ],
      "min": [
        -0.9999969005584717,
        -0.9995013475418091,
        -0.9999958276748657
      ],
      "type": "VEC3"
    },
    {
      "bufferView": 1,
      "componentType": 5126,
      "count": 9159,
      "max": [
        0.9746106266975403,
        1.0
      ],
      "min": [
        3.5749398996642867e-09,
        -8.047189936633004e-08
      ],
      "type": "VEC2"
    },
    {
      "bufferView": 0,
      "componentType": 5125,
      "count": 44040,
      "type": "SCALAR"
    }
  ],
  "asset": {
    "extras": {
      "author": "EvanLegrand (https://sketchfab.com/evan4129)",
      "license": "CC-BY-4.0 (http://creativecommons.org/licenses/by/4.0/)",
      "source": "https://sketchfab.com/3d-models/sony-boombox-photoscan-medpoly-e99ef81d189148dca5544f0cb7731084",
      "title": "Sony Boombox Photoscan MEDPOLY"
    },
    "generator": "Sketchfab-15.45.0",
    "version": "2.0"
  },
  "bufferViews": [
    {
      "buffer": 0,
      "byteLength": 176160,
      "name": "floatBufferViews",
      "target": 34963
    },
    {
      "buffer": 0,
      "byteLength": 73272,
      "byteOffset": 176160,
      "byteStride": 8,
      "name": "floatBufferViews",
      "target": 34962
    },
    {
      "buffer": 0,
      "byteLength": 219816,
      "byteOffset": 249432,
      "byteStride": 12,
      "name": "floatBufferViews",
      "target": 34962
    }
  ],
  "buffers": [
    {
      "byteLength": 469248,
      "uri": "scene.bin"
    }
  ],
  "extensionsUsed": [
    "KHR_materials_specular"
  ],
  "images": [
    {
      "uri": "textures/BoomboxMED_Baked_baseColor.png"
    }
  ],
  "materials": [
    {
      "doubleSided": true,
      "extensions": {
        "KHR_materials_specular": {
          "specularColorFactor": [
            1.0,
            1.0,
            1.0
          ],
          "specularFactor": 0.0
        }
      },
      "name": "BoomboxMED_Baked",
      "pbrMetallicRoughness": {
        "baseColorTexture": {
          "index": 0
        },
        "metallicFactor": 0.0,
        "roughnessFactor": 0.0
      }
    }
  ],
  "meshes": [
    {
      "name": "BoomboxMED_Baked_BoomboxMED_Baked_0",
      "primitives": [
        {
          "attributes": {
            "NORMAL": 1,
            "POSITION": 0,
            "TEXCOORD_0": 2
          },
          "indices": 3,
          "material": 0,
          "mode": 4
        }
      ]
    }
  ],
  "nodes": [
    {
      "children": [
        1
      ],
      "matrix": [
        1.0,
        0.0,
        0.0,
        0.0,
        0.0,
        2.220446049250313e-16,
        -1.0,
        0.0,
        0.0,
        1.0,
        2.220446049250313e-16,
        0.0,
        0.0,
        0.0,
        0.0,
        1.0
      ],
      "name": "Sketchfab_model"
    },
    {
      "children": [
        2
      ],
      "matrix": [
        0.009999999776482582,
        0.0,
        0.0,
        0.0,
        0.0,
        0.0,
        0.009999999776482582,
        0.0,
        0.0,
        -0.009999999776482582,
        0.0,
        0.0,
        0.0,
        0.0,
        0.0,
        1.0
      ],
      "name": "BoomboxMED.fbx"
    },
    {
      "children": [
        3
      ],
      "name": "RootNode"
    },
    {
      "children": [
        4
      ],
      "matrix": [
        -1.2507532818939844,
        25.248896708147846,
        497.3306610148371,
        0.0,
        -20.15145691597061,
        496.92225357350105,
        -25.278841903043077,
        0.0,
        -497.5632437800702,
        -20.188966218060937,
        -0.22636798059843793,
        0.0,
        -5930.9765625,
        122.4858627319336,
        112.40365600585938,
        1.0
      ],
      "name": "BoomboxMED_Baked"
    },
    {
      "mesh": 0,
      "name": "BoomboxMED_Baked_BoomboxMED_Baked_0"
    }
  ],
  "samplers": [
    {
      "magFilter": 9729,
      "minFilter": 9987,
      "wrapS": 10497,
      "wrapT": 10497
    }
  ],
  "scene": 0,
  "scenes": [
    {
      "name": "Sketchfab_Scene",
      "nodes": [
        0
      ]
    }
  ],
  "textures": [
    {
      "sampler": 0,
      "source": 0
    }
  ]
}
